<?xml version="1.0" encoding="UTF-8" standalone="no"?>
<!DOCTYPE svg PUBLIC "-//W3C//DTD SVG 1.1//EN"
 "http://www.w3.org/Graphics/SVG/1.1/DTD/svg11.dtd">
<!-- Generated by graphviz version 2.38.0 (20140413.2041)
 -->
<!-- Title: snakemake_dag Pages: 1 -->
<svg width="148pt" height="548pt"
 viewBox="0.00 0.00 148.16 548.00" xmlns="http://www.w3.org/2000/svg" xmlns:xlink="http://www.w3.org/1999/xlink">
<g id="graph0" class="graph" transform="scale(1 1) rotate(0) translate(4 544)">
<title>snakemake_dag</title>
<polygon fill="white" stroke="none" points="-4,4 -4,-544 144.162,-544 144.162,4 -4,4"/>
<!-- 0 -->
<g id="node1" class="node"><title>0</title>
<path fill="none" stroke="#97d856" stroke-width="2" stroke-dasharray="5,2" d="M69.687,-36C69.687,-36 39.687,-36 39.687,-36 33.687,-36 27.687,-30 27.687,-24 27.687,-24 27.687,-12 27.687,-12 27.687,-6 33.687,-0 39.687,-0 39.687,-0 69.687,-0 69.687,-0 75.687,-0 81.687,-6 81.687,-12 81.687,-12 81.687,-24 81.687,-24 81.687,-30 75.687,-36 69.687,-36"/>
<text text-anchor="middle" x="54.687" y="-15" font-family="sans" font-size="10.00">all</text>
</g>
<!-- 1 -->
<g id="node2" class="node"><title>1</title>
<path fill="none" stroke="#d6d856" stroke-width="2" stroke-dasharray="5,2" d="M80.0522,-108C80.0522,-108 29.3219,-108 29.3219,-108 23.3219,-108 17.3219,-102 17.3219,-96 17.3219,-96 17.3219,-84 17.3219,-84 17.3219,-78 23.3219,-72 29.3219,-72 29.3219,-72 80.0522,-72 80.0522,-72 86.0522,-72 92.0522,-78 92.0522,-84 92.0522,-84 92.0522,-96 92.0522,-96 92.0522,-102 86.0522,-108 80.0522,-108"/>
<text text-anchor="middle" x="54.687" y="-87" font-family="sans" font-size="10.00">muscle_align</text>
</g>
<!-- 1&#45;&gt;0 -->
<g id="edge1" class="edge"><title>1&#45;&gt;0</title>
<path fill="none" stroke="grey" stroke-width="2" d="M54.687,-71.6966C54.687,-63.9827 54.687,-54.7125 54.687,-46.1124"/>
<polygon fill="grey" stroke="grey" stroke-width="2" points="58.1871,-46.1043 54.687,-36.1043 51.1871,-46.1044 58.1871,-46.1043"/>
</g>
<!-- 2 -->
<g id="node3" class="node"><title>2</title>
<path fill="none" stroke="#d85656" stroke-width="2" stroke-dasharray="5,2" d="M97.5617,-180C97.5617,-180 11.8123,-180 11.8123,-180 5.81235,-180 -0.187653,-174 -0.187653,-168 -0.187653,-168 -0.187653,-156 -0.187653,-156 -0.187653,-150 5.81235,-144 11.8123,-144 11.8123,-144 97.5617,-144 97.5617,-144 103.562,-144 109.562,-150 109.562,-156 109.562,-156 109.562,-168 109.562,-168 109.562,-174 103.562,-180 97.5617,-180"/>
<text text-anchor="middle" x="54.687" y="-159" font-family="sans" font-size="10.00">reverse_complement</text>
</g>
<!-- 2&#45;&gt;1 -->
<g id="edge2" class="edge"><title>2&#45;&gt;1</title>
<path fill="none" stroke="grey" stroke-width="2" d="M54.687,-143.697C54.687,-135.983 54.687,-126.712 54.687,-118.112"/>
<polygon fill="grey" stroke="grey" stroke-width="2" points="58.1871,-118.104 54.687,-108.104 51.1871,-118.104 58.1871,-118.104"/>
</g>
<!-- 3 -->
<g id="node4" class="node"><title>3</title>
<path fill="none" stroke="#56d89a" stroke-width="2" stroke-dasharray="5,2" d="M128.137,-252C128.137,-252 57.2368,-252 57.2368,-252 51.2368,-252 45.2368,-246 45.2368,-240 45.2368,-240 45.2368,-228 45.2368,-228 45.2368,-222 51.2368,-216 57.2368,-216 57.2368,-216 128.137,-216 128.137,-216 134.137,-216 140.137,-222 140.137,-228 140.137,-228 140.137,-240 140.137,-240 140.137,-246 134.137,-252 128.137,-252"/>
<text text-anchor="middle" x="92.687" y="-231" font-family="sans" font-size="10.00">bedtools_getfasta</text>
</g>
<!-- 3&#45;&gt;2 -->
<g id="edge3" class="edge"><title>3&#45;&gt;2</title>
<path fill="none" stroke="grey" stroke-width="2" d="M83.2938,-215.697C78.9221,-207.644 73.6297,-197.894 68.7918,-188.982"/>
<polygon fill="grey" stroke="grey" stroke-width="2" points="71.8192,-187.223 63.9722,-180.104 65.6672,-190.563 71.8192,-187.223"/>
</g>
<!-- 4 -->
<g id="node5" class="node"><title>4</title>
<path fill="none" stroke="#569ad8" stroke-width="2" stroke-dasharray="5,2" d="M82.5717,-324C82.5717,-324 26.8023,-324 26.8023,-324 20.8023,-324 14.8023,-318 14.8023,-312 14.8023,-312 14.8023,-300 14.8023,-300 14.8023,-294 20.8023,-288 26.8023,-288 26.8023,-288 82.5717,-288 82.5717,-288 88.5717,-288 94.5717,-294 94.5717,-300 94.5717,-300 94.5717,-312 94.5717,-312 94.5717,-318 88.5717,-324 82.5717,-324"/>
<text text-anchor="middle" x="54.687" y="-303" font-family="sans" font-size="10.00">bedtools_prep</text>
</g>
<!-- 4&#45;&gt;2 -->
<g id="edge4" class="edge"><title>4&#45;&gt;2</title>
<path fill="none" stroke="grey" stroke-width="2" d="M47.2073,-287.704C43.2141,-277.522 38.7141,-264.272 36.687,-252 34.0795,-236.214 34.0795,-231.786 36.687,-216 38.1282,-207.275 40.8192,-198.056 43.6894,-189.797"/>
<polygon fill="grey" stroke="grey" stroke-width="2" points="47.0172,-190.889 47.2073,-180.296 40.4527,-188.458 47.0172,-190.889"/>
</g>
<!-- 4&#45;&gt;3 -->
<g id="edge5" class="edge"><title>4&#45;&gt;3</title>
<path fill="none" stroke="grey" stroke-width="2" d="M64.0803,-287.697C68.4519,-279.644 73.7443,-269.894 78.5823,-260.982"/>
<polygon fill="grey" stroke="grey" stroke-width="2" points="81.7068,-262.563 83.4018,-252.104 75.5548,-259.223 81.7068,-262.563"/>
</g>
<!-- 5 -->
<g id="node6" class="node"><title>5</title>
<path fill="none" stroke="#59d856" stroke-width="2" stroke-dasharray="5,2" d="M89.4481,-396C89.4481,-396 19.9259,-396 19.9259,-396 13.9259,-396 7.9259,-390 7.9259,-384 7.9259,-384 7.9259,-372 7.9259,-372 7.9259,-366 13.9259,-360 19.9259,-360 19.9259,-360 89.4481,-360 89.4481,-360 95.4481,-360 101.448,-366 101.448,-372 101.448,-372 101.448,-384 101.448,-384 101.448,-390 95.4481,-396 89.4481,-396"/>
<text text-anchor="middle" x="54.687" y="-375" font-family="sans" font-size="10.00">filter_blast_report</text>
</g>
<!-- 5&#45;&gt;4 -->
<g id="edge6" class="edge"><title>5&#45;&gt;4</title>
<path fill="none" stroke="grey" stroke-width="2" d="M54.687,-359.697C54.687,-351.983 54.687,-342.712 54.687,-334.112"/>
<polygon fill="grey" stroke="grey" stroke-width="2" points="58.1871,-334.104 54.687,-324.104 51.1871,-334.104 58.1871,-334.104"/>
</g>
<!-- 6 -->
<g id="node7" class="node"><title>6</title>
<path fill="none" stroke="#56d8d8" stroke-width="2" stroke-dasharray="5,2" d="M69.687,-468C69.687,-468 39.687,-468 39.687,-468 33.687,-468 27.687,-462 27.687,-456 27.687,-456 27.687,-444 27.687,-444 27.687,-438 33.687,-432 39.687,-432 39.687,-432 69.687,-432 69.687,-432 75.687,-432 81.687,-438 81.687,-444 81.687,-444 81.687,-456 81.687,-456 81.687,-462 75.687,-468 69.687,-468"/>
<text text-anchor="middle" x="54.687" y="-447" font-family="sans" font-size="10.00">blastn</text>
</g>
<!-- 6&#45;&gt;5 -->
<g id="edge7" class="edge"><title>6&#45;&gt;5</title>
<path fill="none" stroke="grey" stroke-width="2" d="M54.687,-431.697C54.687,-423.983 54.687,-414.712 54.687,-406.112"/>
<polygon fill="grey" stroke="grey" stroke-width="2" points="58.1871,-406.104 54.687,-396.104 51.1871,-406.104 58.1871,-406.104"/>
</g>
<!-- 7 -->
<g id="node8" class="node"><title>7</title>
<path fill="none" stroke="#d89556" stroke-width="2" stroke-dasharray="5,2" d="M96.4159,-540C96.4159,-540 12.9582,-540 12.9582,-540 6.95815,-540 0.958155,-534 0.958155,-528 0.958155,-528 0.958155,-516 0.958155,-516 0.958155,-510 6.95815,-504 12.9582,-504 12.9582,-504 96.4159,-504 96.4159,-504 102.416,-504 108.416,-510 108.416,-516 108.416,-516 108.416,-528 108.416,-528 108.416,-534 102.416,-540 96.4159,-540"/>
<text text-anchor="middle" x="54.687" y="-519" font-family="sans" font-size="10.00">create_local_blastdb</text>
</g>
<!-- 7&#45;&gt;6 -->
<g id="edge8" class="edge"><title>7&#45;&gt;6</title>
<path fill="none" stroke="grey" stroke-width="2" d="M54.687,-503.697C54.687,-495.983 54.687,-486.712 54.687,-478.112"/>
<polygon fill="grey" stroke="grey" stroke-width="2" points="58.1871,-478.104 54.687,-468.104 51.1871,-478.104 58.1871,-478.104"/>
</g>
</g>
</svg>
