<?xml version="1.0" encoding="UTF-8" standalone="no"?>
<!DOCTYPE svg PUBLIC "-//W3C//DTD SVG 1.1//EN"
 "http://www.w3.org/Graphics/SVG/1.1/DTD/svg11.dtd">
<!-- Generated by graphviz version 2.38.0 (20140413.2041)
 -->
<!-- Title: snakemake_dag Pages: 1 -->
<svg width="188pt" height="548pt"
 viewBox="0.00 0.00 188.34 548.00" xmlns="http://www.w3.org/2000/svg" xmlns:xlink="http://www.w3.org/1999/xlink">
<g id="graph0" class="graph" transform="scale(1 1) rotate(0) translate(4 544)">
<title>snakemake_dag</title>
<polygon fill="white" stroke="none" points="-4,4 -4,-544 184.339,-544 184.339,4 -4,4"/>
<!-- 0 -->
<g id="node1" class="node"><title>0</title>
<path fill="none" stroke="#d6d856" stroke-width="2" stroke-dasharray="5,2" d="M72.8643,-36C72.8643,-36 42.8643,-36 42.8643,-36 36.8643,-36 30.8643,-30 30.8643,-24 30.8643,-24 30.8643,-12 30.8643,-12 30.8643,-6 36.8643,-0 42.8643,-0 42.8643,-0 72.8643,-0 72.8643,-0 78.8643,-0 84.8643,-6 84.8643,-12 84.8643,-12 84.8643,-24 84.8643,-24 84.8643,-30 78.8643,-36 72.8643,-36"/>
<text text-anchor="middle" x="57.8643" y="-15" font-family="sans" font-size="10.00">all</text>
</g>
<!-- 1 -->
<g id="node2" class="node"><title>1</title>
<path fill="none" stroke="#59d856" stroke-width="2" stroke-dasharray="5,2" d="M83.2294,-108C83.2294,-108 32.4991,-108 32.4991,-108 26.4991,-108 20.4991,-102 20.4991,-96 20.4991,-96 20.4991,-84 20.4991,-84 20.4991,-78 26.4991,-72 32.4991,-72 32.4991,-72 83.2294,-72 83.2294,-72 89.2294,-72 95.2294,-78 95.2294,-84 95.2294,-84 95.2294,-96 95.2294,-96 95.2294,-102 89.2294,-108 83.2294,-108"/>
<text text-anchor="middle" x="57.8643" y="-87" font-family="sans" font-size="10.00">muscle_align</text>
</g>
<!-- 1&#45;&gt;0 -->
<g id="edge1" class="edge"><title>1&#45;&gt;0</title>
<path fill="none" stroke="grey" stroke-width="2" d="M57.8643,-71.6966C57.8643,-63.9827 57.8643,-54.7125 57.8643,-46.1124"/>
<polygon fill="grey" stroke="grey" stroke-width="2" points="61.3644,-46.1043 57.8643,-36.1043 54.3644,-46.1044 61.3644,-46.1043"/>
</g>
<!-- 2 -->
<g id="node3" class="node"><title>2</title>
<path fill="none" stroke="#d85656" stroke-width="2" stroke-dasharray="5,2" d="M100.739,-180C100.739,-180 14.9896,-180 14.9896,-180 8.98959,-180 2.98959,-174 2.98959,-168 2.98959,-168 2.98959,-156 2.98959,-156 2.98959,-150 8.98959,-144 14.9896,-144 14.9896,-144 100.739,-144 100.739,-144 106.739,-144 112.739,-150 112.739,-156 112.739,-156 112.739,-168 112.739,-168 112.739,-174 106.739,-180 100.739,-180"/>
<text text-anchor="middle" x="57.8643" y="-159" font-family="sans" font-size="10.00">reverse_complement</text>
</g>
<!-- 2&#45;&gt;1 -->
<g id="edge2" class="edge"><title>2&#45;&gt;1</title>
<path fill="none" stroke="grey" stroke-width="2" d="M57.8643,-143.697C57.8643,-135.983 57.8643,-126.712 57.8643,-118.112"/>
<polygon fill="grey" stroke="grey" stroke-width="2" points="61.3644,-118.104 57.8643,-108.104 54.3644,-118.104 61.3644,-118.104"/>
</g>
<!-- 3 -->
<g id="node4" class="node"><title>3</title>
<path fill="none" stroke="#d89556" stroke-width="2" stroke-dasharray="5,2" d="M168.314,-252C168.314,-252 97.414,-252 97.414,-252 91.414,-252 85.414,-246 85.414,-240 85.414,-240 85.414,-228 85.414,-228 85.414,-222 91.414,-216 97.414,-216 97.414,-216 168.314,-216 168.314,-216 174.314,-216 180.314,-222 180.314,-228 180.314,-228 180.314,-240 180.314,-240 180.314,-246 174.314,-252 168.314,-252"/>
<text text-anchor="middle" x="132.864" y="-231" font-family="sans" font-size="10.00">bedtools_getfasta</text>
</g>
<!-- 3&#45;&gt;2 -->
<g id="edge3" class="edge"><title>3&#45;&gt;2</title>
<path fill="none" stroke="grey" stroke-width="2" d="M114.325,-215.697C105.061,-207.05 93.702,-196.449 83.6075,-187.027"/>
<polygon fill="grey" stroke="grey" stroke-width="2" points="85.889,-184.369 76.1903,-180.104 81.1128,-189.486 85.889,-184.369"/>
</g>
<!-- 4 -->
<g id="node5" class="node"><title>4</title>
<path fill="none" stroke="#569ad8" stroke-width="2" stroke-dasharray="5,2" d="M115.749,-324C115.749,-324 59.9795,-324 59.9795,-324 53.9795,-324 47.9795,-318 47.9795,-312 47.9795,-312 47.9795,-300 47.9795,-300 47.9795,-294 53.9795,-288 59.9795,-288 59.9795,-288 115.749,-288 115.749,-288 121.749,-288 127.749,-294 127.749,-300 127.749,-300 127.749,-312 127.749,-312 127.749,-318 121.749,-324 115.749,-324"/>
<text text-anchor="middle" x="87.8643" y="-303" font-family="sans" font-size="10.00">bedtools_prep</text>
</g>
<!-- 4&#45;&gt;2 -->
<g id="edge4" class="edge"><title>4&#45;&gt;2</title>
<path fill="none" stroke="grey" stroke-width="2" d="M84.2456,-287.871C79.1101,-263.564 69.6569,-218.819 63.5713,-190.013"/>
<polygon fill="grey" stroke="grey" stroke-width="2" points="66.9873,-189.25 61.4958,-180.189 60.1385,-190.697 66.9873,-189.25"/>
</g>
<!-- 4&#45;&gt;3 -->
<g id="edge6" class="edge"><title>4&#45;&gt;3</title>
<path fill="none" stroke="grey" stroke-width="2" d="M98.9879,-287.697C104.219,-279.559 110.564,-269.689 116.342,-260.701"/>
<polygon fill="grey" stroke="grey" stroke-width="2" points="119.405,-262.409 121.869,-252.104 113.517,-258.623 119.405,-262.409"/>
</g>
<!-- 5 -->
<g id="node6" class="node"><title>5</title>
<path fill="none" stroke="#56d8d8" stroke-width="2" stroke-dasharray="5,2" d="M88.6254,-396C88.6254,-396 19.1032,-396 19.1032,-396 13.1032,-396 7.10315,-390 7.10315,-384 7.10315,-384 7.10315,-372 7.10315,-372 7.10315,-366 13.1032,-360 19.1032,-360 19.1032,-360 88.6254,-360 88.6254,-360 94.6254,-360 100.625,-366 100.625,-372 100.625,-372 100.625,-384 100.625,-384 100.625,-390 94.6254,-396 88.6254,-396"/>
<text text-anchor="middle" x="53.8643" y="-375" font-family="sans" font-size="10.00">filter_blast_report</text>
</g>
<!-- 5&#45;&gt;2 -->
<g id="edge5" class="edge"><title>5&#45;&gt;2</title>
<path fill="none" stroke="grey" stroke-width="2" d="M47.6262,-359.593C44.2969,-349.374 40.5469,-336.124 38.8643,-324 32.364,-277.163 42.5791,-222.459 50.3693,-190.387"/>
<polygon fill="grey" stroke="grey" stroke-width="2" points="53.8307,-190.975 52.8906,-180.422 47.0446,-189.258 53.8307,-190.975"/>
</g>
<!-- 5&#45;&gt;4 -->
<g id="edge7" class="edge"><title>5&#45;&gt;4</title>
<path fill="none" stroke="grey" stroke-width="2" d="M62.2688,-359.697C66.139,-351.728 70.8159,-342.1 75.1074,-333.264"/>
<polygon fill="grey" stroke="grey" stroke-width="2" points="78.3356,-334.629 79.5564,-324.104 72.0391,-331.57 78.3356,-334.629"/>
</g>
<!-- 6 -->
<g id="node7" class="node"><title>6</title>
<path fill="none" stroke="#97d856" stroke-width="2" stroke-dasharray="5,2" d="M68.8643,-468C68.8643,-468 38.8643,-468 38.8643,-468 32.8643,-468 26.8643,-462 26.8643,-456 26.8643,-456 26.8643,-444 26.8643,-444 26.8643,-438 32.8643,-432 38.8643,-432 38.8643,-432 68.8643,-432 68.8643,-432 74.8643,-432 80.8643,-438 80.8643,-444 80.8643,-444 80.8643,-456 80.8643,-456 80.8643,-462 74.8643,-468 68.8643,-468"/>
<text text-anchor="middle" x="53.8643" y="-447" font-family="sans" font-size="10.00">blastn</text>
</g>
<!-- 6&#45;&gt;5 -->
<g id="edge8" class="edge"><title>6&#45;&gt;5</title>
<path fill="none" stroke="grey" stroke-width="2" d="M53.8643,-431.697C53.8643,-423.983 53.8643,-414.712 53.8643,-406.112"/>
<polygon fill="grey" stroke="grey" stroke-width="2" points="57.3644,-406.104 53.8643,-396.104 50.3644,-406.104 57.3644,-406.104"/>
</g>
<!-- 7 -->
<g id="node8" class="node"><title>7</title>
<path fill="none" stroke="#56d89a" stroke-width="2" stroke-dasharray="5,2" d="M95.5931,-540C95.5931,-540 12.1354,-540 12.1354,-540 6.1354,-540 0.135401,-534 0.135401,-528 0.135401,-528 0.135401,-516 0.135401,-516 0.135401,-510 6.1354,-504 12.1354,-504 12.1354,-504 95.5931,-504 95.5931,-504 101.593,-504 107.593,-510 107.593,-516 107.593,-516 107.593,-528 107.593,-528 107.593,-534 101.593,-540 95.5931,-540"/>
<text text-anchor="middle" x="53.8643" y="-519" font-family="sans" font-size="10.00">create_local_blastdb</text>
</g>
<!-- 7&#45;&gt;6 -->
<g id="edge9" class="edge"><title>7&#45;&gt;6</title>
<path fill="none" stroke="grey" stroke-width="2" d="M53.8643,-503.697C53.8643,-495.983 53.8643,-486.712 53.8643,-478.112"/>
<polygon fill="grey" stroke="grey" stroke-width="2" points="57.3644,-478.104 53.8643,-468.104 50.3644,-478.104 57.3644,-478.104"/>
</g>
</g>
</svg>
